HIERARCHY
ROOT hip
{
	OFFSET 0.000000 0.000000 0.000000 
	CHANNELS 6 Xposition Yposition Zposition Xrotation Zrotation Yrotation
	JOINT abdomen
	{
		OFFSET 0.000000 3.402643 0.000000 
		CHANNELS 3 Xrotation Zrotation Yrotation
		JOINT chest
		{
			OFFSET 0.000000 8.438565 -0.680529 
			CHANNELS 3 Xrotation Zrotation Yrotation
			JOINT neck
			{
				OFFSET 0.000000 10.207942 -0.272212 
				CHANNELS 3 Xrotation Zrotation Yrotation
				JOINT head
				{
					OFFSET 0.000000 3.130431 0.000000 
					CHANNELS 3 Xrotation Zrotation Yrotation
					End Site
					{
						OFFSET 0.000000 3.130435 0.000000 
					}
				}
			}
			JOINT lCollar
			{
				OFFSET 3.470700 6.669187 -0.816635 
				CHANNELS 3 Yrotation Zrotation Xrotation
				JOINT lShldr
				{
					OFFSET 3.198488 0.000000 0.000000 
					CHANNELS 3 Zrotation Yrotation Xrotation
					JOINT lForeArm
					{
						OFFSET 10.139888 0.000000 0.000000 
						CHANNELS 3 Yrotation Zrotation Xrotation
						JOINT lHand
						{
							OFFSET 8.370511 0.000000 0.000000 
							CHANNELS 3 Zrotation Yrotation Xrotation
							End Site
							{
								OFFSET 4.083176 0.000000 0.000000 
							}
						}
					}
				}
			}
			JOINT rCollar
			{
				OFFSET -3.470700 6.669187 -0.816635 
				CHANNELS 3 Yrotation Zrotation Xrotation
				JOINT rShldr
				{
					OFFSET -3.198488 0.000000 0.000000 
					CHANNELS 3 Zrotation Yrotation Xrotation
					JOINT rForeArm
					{
						OFFSET -10.139888 0.000000 0.000000 
						CHANNELS 3 Yrotation Zrotation Xrotation
						JOINT rHand
						{
							OFFSET -8.370511 0.000000 0.000000 
							CHANNELS 3 Zrotation Yrotation Xrotation
							End Site
							{
								OFFSET -4.083176 0.000000 0.000000 
							}
						}
					}
				}
			}
		}
	}
	JOINT lThigh
	{
		OFFSET 5.308129 -1.633274 1.361059 
		CHANNELS 3 Xrotation Zrotation Yrotation
		JOINT lShin
		{
			OFFSET -2.041588 -20.007561 0.000000 
			CHANNELS 3 Xrotation Zrotation Yrotation
			JOINT lFoot
			{
				OFFSET 0.000000 -19.190928 -1.224953 
				CHANNELS 3 Xrotation Yrotation Zrotation
				End Site
				{
					OFFSET 0.000000 -2.449906 4.627600 
				}
			}
		}
	}
	JOINT rThigh
	{
		OFFSET -5.308129 -1.633274 1.361059 
		CHANNELS 3 Xrotation Zrotation Yrotation
		JOINT rShin
		{
			OFFSET 2.041588 -20.007561 0.000000 
			CHANNELS 3 Xrotation Zrotation Yrotation
			JOINT rFoot
			{
				OFFSET 0.000000 -19.190928 -1.224953 
				CHANNELS 3 Xrotation Yrotation Zrotation
				End Site
				{
					OFFSET 0.000000 -2.449906 4.627600 
				}
			}
		}
	}
}
MOTION
Frames: 13
Frame Time: 0.011111
2.328871 51.224110 41.794899 -4.767780 -6.512752 -3.025113 34.068565 5.041785 6.343684 -29.811239 1.604926 1.006207 -15.309666 -2.082263 -0.710858 40.111237 1.079876 -1.826348 2.656661 -4.973740 1.830115 -73.464775 -20.734785 27.436392 -60.431950 9.302179 12.591530 8.524705 12.647240 -39.915417 -4.438679 -1.473473 2.444106 72.317276 29.691225 21.732861 56.332211 -8.877159 10.801897 -8.534408 -12.637552 45.345566 -20.645687 10.299521 -6.823749 23.958061 -5.610654 -4.083960 -15.082707 5.170800 -1.678637 24.582695 4.413948 9.153871 21.989737 5.699823 3.786973 -17.390249 -1.680118 2.355144 
2.401533 51.263966 42.433838 -4.741404 -5.853057 -3.239471 33.595192 4.346586 6.033617 -29.781773 1.734211 1.018325 -15.035112 -2.003304 -0.703968 40.316925 0.967474 -1.817332 2.656661 -4.973740 1.830115 -73.479614 -20.539091 27.251411 -60.037800 9.271809 12.413424 8.524705 12.647240 -40.042366 -4.438679 -1.473473 2.444106 72.398636 29.374527 21.347057 55.802807 -8.803093 10.578974 -8.534408 -12.637552 45.111187 -19.921030 9.511200 -6.552165 23.974590 -5.631210 -4.059640 -13.677292 5.256661 -1.835301 24.045969 3.681817 8.770485 23.726347 5.621666 4.016453 -16.520861 -1.657330 2.429518 
2.449056 51.288490 42.991833 -4.951755 -5.287285 -3.335976 33.637619 3.653611 5.753156 -29.937956 1.905476 1.018983 -14.683645 -2.048976 -0.677173 40.444885 1.107276 -1.688282 2.656661 -4.973740 1.830115 -73.534660 -20.371820 26.985991 -59.802692 9.250166 12.308505 8.524705 12.647240 -40.169323 -4.438679 -1.473473 2.444106 72.560928 29.230104 20.778875 55.114552 -8.696590 10.282347 -8.534408 -12.637552 44.701031 -19.108721 8.875877 -6.064787 24.048031 -5.615092 -4.073284 -12.024613 5.238987 -2.055107 23.389791 3.144955 8.532656 25.884384 5.529078 4.327514 -15.503814 -1.900782 2.447448 
2.500869 51.316391 43.560562 -5.203336 -4.854656 -3.246104 33.776093 3.217189 5.477418 -30.045425 1.975028 1.005561 -14.616499 -2.152661 -0.693600 40.737484 1.316958 -1.670432 2.656661 -4.973740 1.830115 -73.549751 -20.185890 26.888906 -59.655529 9.243538 12.247048 8.524705 12.647240 -40.071667 -4.438679 -1.473473 2.444106 72.763245 28.917545 20.291430 54.798168 -8.649095 10.150829 -8.534408 -12.637552 44.437355 -18.238348 8.348157 -5.500077 24.258183 -5.615955 -4.102551 -10.317525 5.247729 -2.217951 22.725731 2.773820 7.987537 28.155273 5.411906 4.621857 -14.288832 -2.104928 2.492805 
2.556669 51.355938 44.130211 -5.368124 -4.438066 -2.977639 33.895191 2.914317 5.136309 -30.221409 1.980574 0.949765 -14.773381 -2.189987 -0.706774 41.156796 1.331754 -1.712552 2.656661 -4.973740 1.830115 -73.556198 -20.048992 26.723171 -59.462132 9.220892 12.155962 8.524705 12.647240 -40.218151 -4.438679 -1.473473 2.444106 72.957809 28.478167 19.755285 54.639450 -8.621387 10.076625 -8.534408 -12.637552 44.095558 -17.544390 7.781411 -4.928978 24.635048 -5.581807 -4.167933 -9.281793 4.998916 -2.356167 21.899584 2.441616 7.054518 30.496019 5.288878 4.906985 -12.732045 -2.104657 2.597106 
2.610629 51.380470 44.704147 -5.601366 -4.001851 -2.689299 33.986965 2.596681 4.753029 -30.270418 2.070732 0.885339 -14.882159 -2.281605 -0.738008 41.535969 1.333577 -1.814961 2.656661 -4.973740 1.830115 -73.605774 -20.057669 26.441343 -59.079353 9.187020 11.991507 8.524705 12.647240 -40.599010 -4.438679 -1.473473 2.444106 73.132294 28.039696 19.101147 54.502258 -8.599592 10.021971 -8.534408 -12.637552 43.714703 -16.800022 7.185001 -4.284972 25.086960 -5.572449 -4.225794 -8.806091 4.348845 -2.507639 21.076130 2.031487 5.900220 32.828629 5.151431 5.214026 -10.728939 -2.266933 2.700468 
2.665816 51.404076 45.301388 -6.050115 -3.843891 -2.637491 34.228985 2.471007 4.638799 -29.967577 2.132291 0.876843 -15.058260 -2.302324 -0.723888 41.750469 1.224782 -1.853556 2.656661 -4.973740 1.830115 -73.701416 -20.329069 26.124916 -58.665348 9.148273 11.806193 8.524705 12.647240 -40.979870 -4.438679 -1.473473 2.444106 73.274895 27.905857 18.561325 54.365070 -8.577384 9.966049 -8.534408 -12.637552 43.607277 -15.977427 6.920320 -3.530285 25.923557 -5.533103 -4.331867 -8.646913 3.354928 -2.666072 20.376028 1.797454 5.172368 35.306515 4.969459 5.526650 -8.262631 -2.616743 2.780423 
2.762086 51.440254 45.894951 -6.145121 -3.107537 -2.317653 33.967655 1.985567 4.021694 -29.469421 2.112793 0.808243 -15.232044 -2.124282 -0.723204 41.741726 1.017119 -1.856096 2.656661 -4.973740 1.830115 -73.709770 -20.661011 25.724503 -58.347191 9.117517 11.666007 8.524705 12.647240 -41.253307 -4.438679 -1.473473 2.444106 73.581848 27.998936 17.788969 54.037903 -8.521312 9.827300 -8.534408 -12.637552 43.294781 -15.342236 5.914597 -2.789688 26.716244 -5.503937 -4.445111 -8.269692 2.117963 -2.851035 19.045542 0.879499 3.787889 37.766167 4.792662 5.823661 -5.070313 -2.618427 2.930464 
2.763619 51.380157 46.272980 -6.414268 -3.942058 -2.289620 34.929649 2.728735 4.479196 -30.495392 2.097957 0.774762 -14.978067 -2.176914 -0.639932 41.899582 1.010136 -1.706641 2.656661 -4.973740 1.830115 -73.778130 -20.239458 25.352243 -58.187298 9.098956 11.597798 8.524705 12.647240 -41.243534 -4.438679 -1.473473 2.444106 73.744293 27.531580 17.056318 53.564167 -8.440006 9.623361 -8.534408 -12.637552 42.835793 -15.293754 6.890775 -2.217351 27.420164 -5.469461 -4.510241 -7.537674 1.029395 -3.011702 17.878748 1.826505 3.956234 40.238960 4.622873 6.099127 -1.278115 -4.271480 2.983485 
2.817885 51.404076 46.828831 -6.832497 -3.691868 -2.331906 35.331078 2.464914 4.363526 -30.514963 2.127177 0.769589 -14.938804 -2.171534 -0.622999 41.822002 0.986950 -1.676281 2.656661 -4.973740 1.830115 -73.777641 -20.219934 25.195997 -58.036808 9.076869 11.530166 8.524705 12.647240 -41.263077 -4.438679 -1.473473 2.444106 73.972710 27.491358 16.207701 52.910023 -8.314125 9.350993 -8.534408 -12.637552 42.376808 -14.326788 6.480289 -1.734038 27.902750 -5.435024 -4.594677 -7.483435 0.524675 -3.113040 16.754238 1.367498 3.340934 42.657303 4.437057 6.397947 2.139956 -6.485349 3.175825 
2.932858 51.486240 47.377628 -6.916552 -2.916070 -2.145162 35.242535 1.956103 3.820605 -30.300106 2.094806 0.712856 -14.978084 -2.190739 -0.616021 41.597595 0.990964 -1.653669 2.656661 -4.973740 1.830115 -73.758888 -20.259422 25.107553 -58.111473 9.085095 11.554988 8.524705 12.647240 -41.233776 -4.438679 -1.473473 2.444106 74.155724 27.365242 15.659918 52.563828 -8.252097 9.213814 -8.534408 -12.637552 42.161964 -13.512346 5.340405 -1.603510 28.302748 -5.420231 -4.646500 -7.720582 0.310073 -3.116341 15.117866 0.205595 2.150416 45.063519 4.231544 6.652790 5.156804 -7.362843 3.425133 
2.993256 51.517822 47.904354 -7.275760 -2.641598 -2.261901 35.605286 1.649423 3.704300 -30.251297 2.203327 0.718101 -14.851437 -2.227407 -0.612355 41.245785 0.971057 -1.680505 2.656661 -4.973740 1.830115 -73.775925 -20.151594 25.108116 -58.314583 9.112178 11.655220 8.524705 12.647240 -41.106819 -4.438679 -1.473473 2.444106 74.223282 26.990366 15.625873 52.606014 -8.259876 9.224240 -8.534408 -12.637552 42.591656 -12.410333 4.872068 -1.434289 28.395721 -5.396432 -4.668262 -7.841766 0.251773 -3.133352 13.879973 -0.340863 1.727569 47.484962 3.999351 6.939759 7.897829 -6.509586 3.468325 
3.050281 51.554611 48.399807 -7.399803 -2.158990 -2.368943 35.771225 1.155355 3.409315 -30.290537 2.339020 0.696327 -14.754156 -2.306107 -0.535787 41.081348 1.007934 -1.530828 2.656661 -4.973740 1.830115 -73.782608 -20.024456 25.108400 -58.474445 9.130239 11.723614 8.524705 12.647240 -40.843151 -4.438679 -1.473473 2.444106 74.304466 26.507257 15.920536 52.900421 -8.316361 9.350674 -8.534408 -12.637552 43.548687 -11.526019 4.157427 -1.384507 28.433823 -5.406229 -4.674023 -7.855547 0.294416 -3.135306 12.273484 -1.063932 1.401266 49.981964 3.771935 7.178930 9.668028 -6.448761 3.504107 
